<?xml version="1.0" encoding="UTF-8" standalone="no"?>
<!DOCTYPE svg PUBLIC "-//W3C//DTD SVG 1.1//EN"
 "http://www.w3.org/Graphics/SVG/1.1/DTD/svg11.dtd">
<!-- Generated by graphviz version 2.40.1 (20161225.0304)
 -->
<!-- Title: %3 Pages: 1 -->
<svg width="606pt" height="1025pt"
 viewBox="0.00 0.00 606.00 1025.00" xmlns="http://www.w3.org/2000/svg" xmlns:xlink="http://www.w3.org/1999/xlink">
<g id="graph0" class="graph" transform="scale(1 1) rotate(0) translate(4 1021)">
<title>%3</title>
<polygon fill="#ffffff" stroke="transparent" points="-4,4 -4,-1021 602,-1021 602,4 -4,4"/>
<g id="clust1" class="cluster">
<title>cluster_localize_problem</title>
<polygon fill="none" stroke="#000000" points="8,-8 8,-1009 590,-1009 590,-8 8,-8"/>
<text text-anchor="middle" x="299" y="-993.8" font-family="Times,serif" font-size="14.00" fill="#000000">Localize problem state to observe it</text>
</g>
<!-- Identify code that triggers problem -->
<g id="node1" class="node">
<title>Identify code that triggers problem</title>
<path fill="none" stroke="#000000" d="M314.6592,-979C314.6592,-979 127.3408,-979 127.3408,-979 121.3408,-979 115.3408,-973 115.3408,-967 115.3408,-967 115.3408,-955 115.3408,-955 115.3408,-949 121.3408,-943 127.3408,-943 127.3408,-943 314.6592,-943 314.6592,-943 320.6592,-943 326.6592,-949 326.6592,-955 326.6592,-955 326.6592,-967 326.6592,-967 326.6592,-973 320.6592,-979 314.6592,-979"/>
<text text-anchor="middle" x="221" y="-956.8" font-family="Times,serif" font-size="14.00" fill="#000000">Identify code that triggers problem</text>
</g>
<!-- Problem triggered by last edit? -->
<g id="node11" class="node">
<title>Problem triggered by last edit?</title>
<polygon fill="none" stroke="#000000" points="221,-868 52.5001,-850 221,-832 389.4999,-850 221,-868"/>
<text text-anchor="middle" x="221" y="-845.8" font-family="Times,serif" font-size="14.00" fill="#000000">Problem triggered by last edit?</text>
</g>
<!-- Identify code that triggers problem&#45;&gt;Problem triggered by last edit? -->
<g id="edge1" class="edge">
<title>Identify code that triggers problem&#45;&gt;Problem triggered by last edit?</title>
<path fill="none" stroke="#000000" d="M221,-942.6706C221,-925.2373 221,-898.7482 221,-878.5489"/>
<polygon fill="#000000" stroke="#000000" points="224.5001,-878.3566 221,-868.3566 217.5001,-878.3567 224.5001,-878.3566"/>
</g>
<!-- Choose code last edited -->
<g id="node2" class="node">
<title>Choose code last edited</title>
<path fill="none" stroke="#000000" d="M171.0768,-744C171.0768,-744 46.9232,-744 46.9232,-744 40.9232,-744 34.9232,-738 34.9232,-732 34.9232,-732 34.9232,-720 34.9232,-720 34.9232,-714 40.9232,-708 46.9232,-708 46.9232,-708 171.0768,-708 171.0768,-708 177.0768,-708 183.0768,-714 183.0768,-720 183.0768,-720 183.0768,-732 183.0768,-732 183.0768,-738 177.0768,-744 171.0768,-744"/>
<text text-anchor="middle" x="109" y="-721.8" font-family="Times,serif" font-size="14.00" fill="#000000">Choose code last edited</text>
</g>
<!-- Code identified -->
<g id="node4" class="node">
<title>Code identified</title>
<path fill="none" stroke="#000000" d="M275.9346,-633C275.9346,-633 198.0654,-633 198.0654,-633 192.0654,-633 186.0654,-627 186.0654,-621 186.0654,-621 186.0654,-609 186.0654,-609 186.0654,-603 192.0654,-597 198.0654,-597 198.0654,-597 275.9346,-597 275.9346,-597 281.9346,-597 287.9346,-603 287.9346,-609 287.9346,-609 287.9346,-621 287.9346,-621 287.9346,-627 281.9346,-633 275.9346,-633"/>
<text text-anchor="middle" x="237" y="-610.8" font-family="Times,serif" font-size="14.00" fill="#000000">Code identified</text>
</g>
<!-- Choose code last edited&#45;&gt;Code identified -->
<g id="edge4" class="edge">
<title>Choose code last edited&#45;&gt;Code identified</title>
<path fill="none" stroke="#000000" d="M129.8503,-707.9189C151.2353,-689.3741 184.6513,-660.3961 208.4774,-639.7345"/>
<polygon fill="#000000" stroke="#000000" points="210.8967,-642.2692 216.1586,-633.0734 206.3106,-636.9807 210.8967,-642.2692"/>
</g>
<!-- Search for problem code -->
<g id="node3" class="node">
<title>Search for problem code</title>
<path fill="none" stroke="#000000" d="M342.9971,-744C342.9971,-744 213.0029,-744 213.0029,-744 207.0029,-744 201.0029,-738 201.0029,-732 201.0029,-732 201.0029,-720 201.0029,-720 201.0029,-714 207.0029,-708 213.0029,-708 213.0029,-708 342.9971,-708 342.9971,-708 348.9971,-708 354.9971,-714 354.9971,-720 354.9971,-720 354.9971,-732 354.9971,-732 354.9971,-738 348.9971,-744 342.9971,-744"/>
<text text-anchor="middle" x="278" y="-721.8" font-family="Times,serif" font-size="14.00" fill="#000000">Search for problem code</text>
</g>
<!-- Search for problem code&#45;&gt;Code identified -->
<g id="edge5" class="edge">
<title>Search for problem code&#45;&gt;Code identified</title>
<path fill="none" stroke="#000000" d="M271.2297,-707.6706C264.731,-690.0766 254.8254,-663.2591 247.3394,-642.992"/>
<polygon fill="#000000" stroke="#000000" points="250.5285,-641.5244 243.7804,-633.3566 243.9621,-643.9499 250.5285,-641.5244"/>
</g>
<!-- Identify small dataset that triggers problem -->
<g id="node5" class="node">
<title>Identify small dataset that triggers problem</title>
<path fill="none" stroke="#000000" d="M353.932,-522C353.932,-522 120.068,-522 120.068,-522 114.068,-522 108.068,-516 108.068,-510 108.068,-510 108.068,-498 108.068,-498 108.068,-492 114.068,-486 120.068,-486 120.068,-486 353.932,-486 353.932,-486 359.932,-486 365.932,-492 365.932,-498 365.932,-498 365.932,-510 365.932,-510 365.932,-516 359.932,-522 353.932,-522"/>
<text text-anchor="middle" x="237" y="-499.8" font-family="Times,serif" font-size="14.00" fill="#000000">Identify small dataset that triggers problem</text>
</g>
<!-- Code identified&#45;&gt;Identify small dataset that triggers problem -->
<g id="edge6" class="edge">
<title>Code identified&#45;&gt;Identify small dataset that triggers problem</title>
<path fill="none" stroke="#000000" d="M237,-596.6706C237,-579.2373 237,-552.7482 237,-532.5489"/>
<polygon fill="#000000" stroke="#000000" points="240.5001,-532.3566 237,-522.3566 233.5001,-532.3567 240.5001,-532.3566"/>
</g>
<!-- Obvious? -->
<g id="node14" class="node">
<title>Obvious?</title>
<polygon fill="none" stroke="#000000" points="237,-411 174.5373,-393 237,-375 299.4627,-393 237,-411"/>
<text text-anchor="middle" x="237" y="-388.8" font-family="Times,serif" font-size="14.00" fill="#000000">Obvious?</text>
</g>
<!-- Identify small dataset that triggers problem&#45;&gt;Obvious? -->
<g id="edge7" class="edge">
<title>Identify small dataset that triggers problem&#45;&gt;Obvious?</title>
<path fill="none" stroke="#000000" d="M237,-485.6706C237,-468.2373 237,-441.7482 237,-421.5489"/>
<polygon fill="#000000" stroke="#000000" points="240.5001,-421.3566 237,-411.3566 233.5001,-421.3567 240.5001,-421.3566"/>
</g>
<!-- Choose arbitrary subset -->
<g id="node6" class="node">
<title>Choose arbitrary subset</title>
<path fill="none" stroke="#000000" d="M233.1935,-287C233.1935,-287 108.8065,-287 108.8065,-287 102.8065,-287 96.8065,-281 96.8065,-275 96.8065,-275 96.8065,-263 96.8065,-263 96.8065,-257 102.8065,-251 108.8065,-251 108.8065,-251 233.1935,-251 233.1935,-251 239.1935,-251 245.1935,-257 245.1935,-263 245.1935,-263 245.1935,-275 245.1935,-275 245.1935,-281 239.1935,-287 233.1935,-287"/>
<text text-anchor="middle" x="171" y="-264.8" font-family="Times,serif" font-size="14.00" fill="#000000">Choose arbitrary subset</text>
</g>
<!-- Triggers problem? -->
<g id="node12" class="node">
<title>Triggers problem?</title>
<polygon fill="none" stroke="#000000" points="160,-176 53.332,-158 160,-140 266.668,-158 160,-176"/>
<text text-anchor="middle" x="160" y="-153.8" font-family="Times,serif" font-size="14.00" fill="#000000">Triggers problem?</text>
</g>
<!-- Choose arbitrary subset&#45;&gt;Triggers problem? -->
<g id="edge13" class="edge">
<title>Choose arbitrary subset&#45;&gt;Triggers problem?</title>
<path fill="none" stroke="#000000" d="M169.1836,-250.6706C167.4456,-233.1329 164.7994,-206.4306 162.7933,-186.1867"/>
<polygon fill="#000000" stroke="#000000" points="166.2518,-185.5944 161.7826,-175.9883 159.2859,-186.2848 166.2518,-185.5944"/>
</g>
<!-- Normal coding\n(with small dataset and identified code) -->
<g id="node7" class="node">
<title>Normal coding\n(with small dataset and identified code)</title>
<polygon fill="none" stroke="#000000" points="518.4389,-287 281.5611,-287 281.5611,-251 518.4389,-251 518.4389,-287"/>
<text text-anchor="middle" x="400" y="-271.8" font-family="Times,serif" font-size="14.00" fill="#000000">Normal coding</text>
<text text-anchor="middle" x="400" y="-257.8" font-family="Times,serif" font-size="14.00" fill="#000000">(with small dataset and identified code)</text>
</g>
<!-- Problem fixed? -->
<g id="node13" class="node">
<title>Problem fixed?</title>
<polygon fill="none" stroke="#000000" points="402,-176 311.7707,-158 402,-140 492.2293,-158 402,-176"/>
<text text-anchor="middle" x="402" y="-153.8" font-family="Times,serif" font-size="14.00" fill="#000000">Problem fixed?</text>
</g>
<!-- Normal coding\n(with small dataset and identified code)&#45;&gt;Problem fixed? -->
<g id="edge10" class="edge">
<title>Normal coding\n(with small dataset and identified code)&#45;&gt;Problem fixed?</title>
<path fill="none" stroke="#000000" d="M400.3303,-250.6706C400.6463,-233.1329 401.1274,-206.4306 401.4921,-186.1867"/>
<polygon fill="#000000" stroke="#000000" points="404.9951,-186.0498 401.6759,-175.9883 397.9962,-185.9236 404.9951,-186.0498"/>
</g>
<!-- to &quot;Scale out, then up in steps&quot; -->
<g id="node8" class="node">
<title>to &quot;Scale out, then up in steps&quot;</title>
<polygon fill="none" stroke="#000000" points="496.0195,-52 307.9805,-52 307.9805,-16 496.0195,-16 496.0195,-52"/>
<text text-anchor="middle" x="402" y="-29.8" font-family="Times,serif" font-size="14.00" fill="#000000">to &quot;Scale out, then up in steps&quot;</text>
</g>
<!-- to &quot;Convert processing code to problem filter&quot; -->
<g id="node9" class="node">
<title>to &quot;Convert processing code to problem filter&quot;</title>
<polygon fill="none" stroke="#000000" points="290.213,-52 15.787,-52 15.787,-16 290.213,-16 290.213,-52"/>
<text text-anchor="middle" x="153" y="-29.8" font-family="Times,serif" font-size="14.00" fill="#000000">to &quot;Convert processing code to problem filter&quot;</text>
</g>
<!-- Research -->
<g id="node10" class="node">
<title>Research</title>
<polygon fill="none" stroke="#000000" points="581.8044,-52 514.1956,-52 514.1956,-16 581.8044,-16 581.8044,-52"/>
<text text-anchor="middle" x="548" y="-29.8" font-family="Times,serif" font-size="14.00" fill="#000000">Research</text>
</g>
<!-- Problem triggered by last edit?&#45;&gt;Choose code last edited -->
<g id="edge2" class="edge">
<title>Problem triggered by last edit?&#45;&gt;Choose code last edited</title>
<path fill="none" stroke="#000000" d="M206.1273,-833.5338C187.2272,-812.6087 154.3976,-776.2617 132.1949,-751.68"/>
<polygon fill="#000000" stroke="#000000" points="134.691,-749.2219 125.3907,-744.1468 129.4962,-753.9139 134.691,-749.2219"/>
<text text-anchor="middle" x="180.189" y="-783.8" font-family="Times,serif" font-size="14.00" fill="#000000">Yes</text>
</g>
<!-- Problem triggered by last edit?&#45;&gt;Search for problem code -->
<g id="edge3" class="edge">
<title>Problem triggered by last edit?&#45;&gt;Search for problem code</title>
<path fill="none" stroke="#000000" d="M228.9256,-832.7583C238.3356,-812.2875 254.1531,-777.8776 265.2818,-753.6677"/>
<polygon fill="#000000" stroke="#000000" points="268.589,-754.8528 269.5856,-744.305 262.2288,-751.9291 268.589,-754.8528"/>
<text text-anchor="middle" x="260.5552" y="-783.8" font-family="Times,serif" font-size="14.00" fill="#000000">No</text>
</g>
<!-- Triggers problem?&#45;&gt;to &quot;Convert processing code to problem filter&quot; -->
<g id="edge14" class="edge">
<title>Triggers problem?&#45;&gt;to &quot;Convert processing code to problem filter&quot;</title>
<path fill="none" stroke="#000000" d="M158.9821,-139.9693C157.8313,-119.5822 155.9426,-86.1268 154.5954,-62.2614"/>
<polygon fill="#000000" stroke="#000000" points="158.0772,-61.8392 154.0191,-52.0524 151.0884,-62.2338 158.0772,-61.8392"/>
<text text-anchor="middle" x="164.5552" y="-91.8" font-family="Times,serif" font-size="14.00" fill="#000000">No</text>
</g>
<!-- Problem fixed?&#45;&gt;to &quot;Scale out, then up in steps&quot; -->
<g id="edge11" class="edge">
<title>Problem fixed?&#45;&gt;to &quot;Scale out, then up in steps&quot;</title>
<path fill="none" stroke="#000000" d="M402,-139.9693C402,-119.5822 402,-86.1268 402,-62.2614"/>
<polygon fill="#000000" stroke="#000000" points="405.5001,-62.0524 402,-52.0524 398.5001,-62.0525 405.5001,-62.0524"/>
<text text-anchor="middle" x="412.189" y="-91.8" font-family="Times,serif" font-size="14.00" fill="#000000">Yes</text>
</g>
<!-- Problem fixed?&#45;&gt;Research -->
<g id="edge12" class="edge">
<title>Problem fixed?&#45;&gt;Research</title>
<path fill="none" stroke="#000000" d="M419.3214,-143.2886C443.7629,-122.5301 488.7064,-84.359 518.4756,-59.0755"/>
<polygon fill="#000000" stroke="#000000" points="521.0838,-61.4524 526.44,-52.3112 516.5523,-56.117 521.0838,-61.4524"/>
<text text-anchor="middle" x="490.5552" y="-91.8" font-family="Times,serif" font-size="14.00" fill="#000000">No</text>
</g>
<!-- Obvious?&#45;&gt;Choose arbitrary subset -->
<g id="edge9" class="edge">
<title>Obvious?&#45;&gt;Choose arbitrary subset</title>
<path fill="none" stroke="#000000" d="M228.6411,-377.2953C217.8144,-356.9544 198.7666,-321.1675 185.5447,-296.3264"/>
<polygon fill="#000000" stroke="#000000" points="188.58,-294.5797 180.7918,-287.3967 182.4007,-297.8687 188.58,-294.5797"/>
<text text-anchor="middle" x="215.5552" y="-326.8" font-family="Times,serif" font-size="14.00" fill="#000000">No</text>
</g>
<!-- Obvious?&#45;&gt;Normal coding\n(with small dataset and identified code) -->
<g id="edge8" class="edge">
<title>Obvious?&#45;&gt;Normal coding\n(with small dataset and identified code)</title>
<path fill="none" stroke="#000000" d="M254.4439,-379.7298C281.473,-359.1678 333.895,-319.2885 367.8973,-293.4217"/>
<polygon fill="#000000" stroke="#000000" points="370.2787,-296.0078 376.1184,-287.1676 366.0405,-290.4366 370.2787,-296.0078"/>
<text text-anchor="middle" x="336.189" y="-326.8" font-family="Times,serif" font-size="14.00" fill="#000000">Yes</text>
</g>
</g>
</svg>
