<?xml version="1.0" encoding="UTF-8" standalone="no"?>
<!DOCTYPE svg PUBLIC "-//W3C//DTD SVG 1.1//EN"
 "http://www.w3.org/Graphics/SVG/1.1/DTD/svg11.dtd">
<!-- Generated by graphviz version 2.40.1 (20161225.0304)
 -->
<!-- Title: %3 Pages: 1 -->
<svg width="632pt" height="692pt"
 viewBox="0.00 0.00 631.98 692.00" xmlns="http://www.w3.org/2000/svg" xmlns:xlink="http://www.w3.org/1999/xlink">
<g id="graph0" class="graph" transform="scale(1 1) rotate(0) translate(4 688)">
<title>%3</title>
<polygon fill="#ffffff" stroke="transparent" points="-4,4 -4,-688 627.977,-688 627.977,4 -4,4"/>
<g id="clust1" class="cluster">
<title>cluster_normal</title>
<polygon fill="none" stroke="#000000" points="8,-8 8,-676 270,-676 270,-8 8,-8"/>
<text text-anchor="middle" x="139" y="-660.8" font-family="Times,serif" font-size="14.00" fill="#000000">Normal coding</text>
</g>
<g id="clust2" class="cluster">
<title>cluster_print_debugging</title>
<polygon fill="none" stroke="#000000" points="310,-8 310,-676 591,-676 591,-8 310,-8"/>
<text text-anchor="middle" x="450.5" y="-660.8" font-family="Times,serif" font-size="14.00" fill="#000000">Print debugging</text>
</g>
<!-- Start with working code -->
<g id="node1" class="node">
<title>Start with working code</title>
<path fill="none" stroke="#000000" d="M178.4209,-646C178.4209,-646 51.5791,-646 51.5791,-646 45.5791,-646 39.5791,-640 39.5791,-634 39.5791,-634 39.5791,-622 39.5791,-622 39.5791,-616 45.5791,-610 51.5791,-610 51.5791,-610 178.4209,-610 178.4209,-610 184.4209,-610 190.4209,-616 190.4209,-622 190.4209,-622 190.4209,-634 190.4209,-634 190.4209,-640 184.4209,-646 178.4209,-646"/>
<text text-anchor="middle" x="115" y="-623.8" font-family="Times,serif" font-size="14.00" fill="#000000">Start with working code</text>
</g>
<!-- Make a small edit -->
<g id="node2" class="node">
<title>Make a small edit</title>
<path fill="none" stroke="#000000" d="M160.9141,-535C160.9141,-535 69.0859,-535 69.0859,-535 63.0859,-535 57.0859,-529 57.0859,-523 57.0859,-523 57.0859,-511 57.0859,-511 57.0859,-505 63.0859,-499 69.0859,-499 69.0859,-499 160.9141,-499 160.9141,-499 166.9141,-499 172.9141,-505 172.9141,-511 172.9141,-511 172.9141,-523 172.9141,-523 172.9141,-529 166.9141,-535 160.9141,-535"/>
<text text-anchor="middle" x="115" y="-512.8" font-family="Times,serif" font-size="14.00" fill="#000000">Make a small edit</text>
</g>
<!-- Start with working code&#45;&gt;Make a small edit -->
<g id="edge1" class="edge">
<title>Start with working code&#45;&gt;Make a small edit</title>
<path fill="none" stroke="#000000" d="M115,-609.6706C115,-592.2373 115,-565.7482 115,-545.5489"/>
<polygon fill="#000000" stroke="#000000" points="118.5001,-545.3566 115,-535.3566 111.5001,-545.3567 118.5001,-545.3566"/>
</g>
<!-- Run program -->
<g id="node3" class="node">
<title>Run program</title>
<path fill="none" stroke="#000000" d="M124.266,-424C124.266,-424 57.734,-424 57.734,-424 51.734,-424 45.734,-418 45.734,-412 45.734,-412 45.734,-400 45.734,-400 45.734,-394 51.734,-388 57.734,-388 57.734,-388 124.266,-388 124.266,-388 130.266,-388 136.266,-394 136.266,-400 136.266,-400 136.266,-412 136.266,-412 136.266,-418 130.266,-424 124.266,-424"/>
<text text-anchor="middle" x="91" y="-401.8" font-family="Times,serif" font-size="14.00" fill="#000000">Run program</text>
</g>
<!-- Make a small edit&#45;&gt;Run program -->
<g id="edge2" class="edge">
<title>Make a small edit&#45;&gt;Run program</title>
<path fill="none" stroke="#000000" d="M111.0369,-498.6706C107.2501,-481.1569 101.4873,-454.5039 97.1124,-434.2701"/>
<polygon fill="#000000" stroke="#000000" points="100.5034,-433.3911 94.969,-424.3566 93.6615,-434.8705 100.5034,-433.3911"/>
</g>
<!-- Observe behavior -->
<g id="node4" class="node">
<title>Observe behavior</title>
<path fill="none" stroke="#000000" d="M127.628,-300C127.628,-300 36.372,-300 36.372,-300 30.372,-300 24.372,-294 24.372,-288 24.372,-288 24.372,-276 24.372,-276 24.372,-270 30.372,-264 36.372,-264 36.372,-264 127.628,-264 127.628,-264 133.628,-264 139.628,-270 139.628,-276 139.628,-276 139.628,-288 139.628,-288 139.628,-294 133.628,-300 127.628,-300"/>
<text text-anchor="middle" x="82" y="-277.8" font-family="Times,serif" font-size="14.00" fill="#000000">Observe behavior</text>
</g>
<!-- Run program&#45;&gt;Observe behavior -->
<g id="edge3" class="edge">
<title>Run program&#45;&gt;Observe behavior</title>
<path fill="none" stroke="#000000" d="M89.6913,-387.9693C88.2116,-367.5822 85.7834,-334.1268 84.0512,-310.2614"/>
<polygon fill="#000000" stroke="#000000" points="87.5251,-309.7728 83.3103,-300.0524 80.5434,-310.2796 87.5251,-309.7728"/>
</g>
<!-- Is behavior expected? -->
<g id="node6" class="node">
<title>Is behavior expected?</title>
<polygon fill="none" stroke="#000000" points="139,-176 15.8548,-158 139,-140 262.1452,-158 139,-176"/>
<text text-anchor="middle" x="139" y="-153.8" font-family="Times,serif" font-size="14.00" fill="#000000">Is behavior expected?</text>
</g>
<!-- Observe behavior&#45;&gt;Is behavior expected? -->
<g id="edge4" class="edge">
<title>Observe behavior&#45;&gt;Is behavior expected?</title>
<path fill="none" stroke="#000000" d="M90.2883,-263.9693C99.895,-243.0705 115.8142,-208.4393 126.8263,-184.4831"/>
<polygon fill="#000000" stroke="#000000" points="130.0727,-185.8007 131.0692,-175.2529 123.7124,-182.8771 130.0727,-185.8007"/>
</g>
<!-- to &quot;Print debugging&quot; -->
<g id="node5" class="node">
<title>to &quot;Print debugging&quot;</title>
<polygon fill="none" stroke="#000000" points="204.6509,-52 73.3491,-52 73.3491,-16 204.6509,-16 204.6509,-52"/>
<text text-anchor="middle" x="139" y="-29.8" font-family="Times,serif" font-size="14.00" fill="#000000">to &quot;Print debugging&quot;</text>
</g>
<!-- Add print() of local variables -->
<g id="node8" class="node">
<title>Add print() of local variables</title>
<path fill="none" stroke="#000000" d="M527.7766,-535C527.7766,-535 372.2234,-535 372.2234,-535 366.2234,-535 360.2234,-529 360.2234,-523 360.2234,-523 360.2234,-511 360.2234,-511 360.2234,-505 366.2234,-499 372.2234,-499 372.2234,-499 527.7766,-499 527.7766,-499 533.7766,-499 539.7766,-505 539.7766,-511 539.7766,-511 539.7766,-523 539.7766,-523 539.7766,-529 533.7766,-535 527.7766,-535"/>
<text text-anchor="middle" x="450" y="-512.8" font-family="Times,serif" font-size="14.00" fill="#000000">Add print() of local variables</text>
</g>
<!-- to &quot;Print debugging&quot;&#45;&gt;Add print() of local variables -->
<g id="edge7" class="edge">
<title>to &quot;Print debugging&quot;&#45;&gt;Add print() of local variables</title>
<path fill="none" stroke="#000000" d="M204.8124,-41.1312C293.8136,-51.2664 447.5666,-70.6499 501,-89 544.8493,-104.0588 568.5625,-99.9973 592,-140 656.6041,-250.2649 612.3794,-314.193 547,-424 530.879,-451.0759 504.7665,-475.4697 483.6937,-492.4743"/>
<polygon fill="#000000" stroke="#000000" points="481.295,-489.9082 475.6034,-498.8444 485.6255,-495.408 481.295,-489.9082"/>
</g>
<!-- Is behavior expected?&#45;&gt;Make a small edit -->
<g id="edge5" class="edge">
<title>Is behavior expected?&#45;&gt;Make a small edit</title>
<path fill="none" stroke="#000000" d="M147.5979,-174.9001C153.0186,-187.1079 159,-204.1659 159,-220 159,-461.5 159,-461.5 159,-461.5 159,-472.7029 153.4269,-482.9614 146.2475,-491.5287"/>
<polygon fill="#000000" stroke="#000000" points="143.6169,-489.217 139.3165,-498.8998 148.7166,-494.0122 143.6169,-489.217"/>
<text text-anchor="middle" x="169.189" y="-339.8" font-family="Times,serif" font-size="14.00" fill="#000000">Yes</text>
</g>
<!-- Is behavior expected?&#45;&gt;to &quot;Print debugging&quot; -->
<g id="edge6" class="edge">
<title>Is behavior expected?&#45;&gt;to &quot;Print debugging&quot;</title>
<path fill="none" stroke="#000000" d="M139,-139.9693C139,-119.5822 139,-86.1268 139,-62.2614"/>
<polygon fill="#000000" stroke="#000000" points="142.5001,-62.0524 139,-52.0524 135.5001,-62.0525 142.5001,-62.0524"/>
<text text-anchor="middle" x="147.5552" y="-91.8" font-family="Times,serif" font-size="14.00" fill="#000000">No</text>
</g>
<!-- Choose block to debug -->
<g id="node7" class="node">
<title>Choose block to debug</title>
<path fill="none" stroke="#000000" d="M510.2073,-646C510.2073,-646 389.7927,-646 389.7927,-646 383.7927,-646 377.7927,-640 377.7927,-634 377.7927,-634 377.7927,-622 377.7927,-622 377.7927,-616 383.7927,-610 389.7927,-610 389.7927,-610 510.2073,-610 510.2073,-610 516.2073,-610 522.2073,-616 522.2073,-622 522.2073,-622 522.2073,-634 522.2073,-634 522.2073,-640 516.2073,-646 510.2073,-646"/>
<text text-anchor="middle" x="450" y="-623.8" font-family="Times,serif" font-size="14.00" fill="#000000">Choose block to debug</text>
</g>
<!-- Choose block to debug&#45;&gt;Add print() of local variables -->
<g id="edge8" class="edge">
<title>Choose block to debug&#45;&gt;Add print() of local variables</title>
<path fill="none" stroke="#000000" d="M450,-609.6706C450,-592.2373 450,-565.7482 450,-545.5489"/>
<polygon fill="#000000" stroke="#000000" points="453.5001,-545.3566 450,-535.3566 446.5001,-545.3567 453.5001,-545.3566"/>
</g>
<!-- Run, then read print() output -->
<g id="node9" class="node">
<title>Run, then read print() output</title>
<path fill="none" stroke="#000000" d="M526.0767,-424C526.0767,-424 373.9233,-424 373.9233,-424 367.9233,-424 361.9233,-418 361.9233,-412 361.9233,-412 361.9233,-400 361.9233,-400 361.9233,-394 367.9233,-388 373.9233,-388 373.9233,-388 526.0767,-388 526.0767,-388 532.0767,-388 538.0767,-394 538.0767,-400 538.0767,-400 538.0767,-412 538.0767,-412 538.0767,-418 532.0767,-424 526.0767,-424"/>
<text text-anchor="middle" x="450" y="-401.8" font-family="Times,serif" font-size="14.00" fill="#000000">Run, then read print() output</text>
</g>
<!-- Add print() of local variables&#45;&gt;Run, then read print() output -->
<g id="edge9" class="edge">
<title>Add print() of local variables&#45;&gt;Run, then read print() output</title>
<path fill="none" stroke="#000000" d="M450,-498.6706C450,-481.2373 450,-454.7482 450,-434.5489"/>
<polygon fill="#000000" stroke="#000000" points="453.5001,-434.3566 450,-424.3566 446.5001,-434.3567 453.5001,-434.3566"/>
</g>
<!-- Understand problem? -->
<g id="node12" class="node">
<title>Understand problem?</title>
<polygon fill="none" stroke="#000000" points="450,-300 327.8944,-282 450,-264 572.1056,-282 450,-300"/>
<text text-anchor="middle" x="450" y="-277.8" font-family="Times,serif" font-size="14.00" fill="#000000">Understand problem?</text>
</g>
<!-- Run, then read print() output&#45;&gt;Understand problem? -->
<g id="edge10" class="edge">
<title>Run, then read print() output&#45;&gt;Understand problem?</title>
<path fill="none" stroke="#000000" d="M450,-387.9693C450,-367.5822 450,-334.1268 450,-310.2614"/>
<polygon fill="#000000" stroke="#000000" points="453.5001,-310.0524 450,-300.0524 446.5001,-310.0525 453.5001,-310.0524"/>
</g>
<!-- Enter solution -->
<g id="node10" class="node">
<title>Enter solution</title>
<polygon fill="none" stroke="#000000" points="524.4346,-52 429.5654,-52 429.5654,-16 524.4346,-16 524.4346,-52"/>
<text text-anchor="middle" x="477" y="-29.8" font-family="Times,serif" font-size="14.00" fill="#000000">Enter solution</text>
</g>
<!-- Enter solution&#45;&gt;Run program -->
<g id="edge15" class="edge">
<title>Enter solution&#45;&gt;Run program</title>
<path fill="none" stroke="#000000" d="M439.896,-52.0795C409.1181,-67.9915 365.0451,-92.9503 331,-121 237.1835,-198.2953 269.6724,-265.7709 183,-351 170.2447,-363.5429 154.0958,-374.4214 138.9007,-383.1168"/>
<polygon fill="#000000" stroke="#000000" points="137.1577,-380.0811 130.0971,-387.9803 140.5427,-386.2082 137.1577,-380.0811"/>
</g>
<!-- Research -->
<g id="node11" class="node">
<title>Research</title>
<polygon fill="none" stroke="#000000" points="398.8044,-52 331.1956,-52 331.1956,-16 398.8044,-16 398.8044,-52"/>
<text text-anchor="middle" x="365" y="-29.8" font-family="Times,serif" font-size="14.00" fill="#000000">Research</text>
</g>
<!-- Understand problem?&#45;&gt;Research -->
<g id="edge12" class="edge">
<title>Understand problem?&#45;&gt;Research</title>
<path fill="none" stroke="#000000" d="M392.332,-272.4325C364.0564,-264.0946 336,-248.6123 336,-220 336,-220 336,-220 336,-96 336,-83.7761 340.6824,-71.3652 346.2843,-60.8913"/>
<polygon fill="#000000" stroke="#000000" points="349.3178,-62.6373 351.3492,-52.239 343.2767,-59.1009 349.3178,-62.6373"/>
<text text-anchor="middle" x="344.5552" y="-153.8" font-family="Times,serif" font-size="14.00" fill="#000000">No</text>
</g>
<!-- Perceive solution? -->
<g id="node13" class="node">
<title>Perceive solution?</title>
<polygon fill="none" stroke="#000000" points="477,-176 370.8448,-158 477,-140 583.1552,-158 477,-176"/>
<text text-anchor="middle" x="477" y="-153.8" font-family="Times,serif" font-size="14.00" fill="#000000">Perceive solution?</text>
</g>
<!-- Understand problem?&#45;&gt;Perceive solution? -->
<g id="edge11" class="edge">
<title>Understand problem?&#45;&gt;Perceive solution?</title>
<path fill="none" stroke="#000000" d="M453.8112,-264.4968C458.2937,-243.9105 465.7883,-209.4909 471.0407,-185.3685"/>
<polygon fill="#000000" stroke="#000000" points="474.5004,-185.9299 473.2082,-175.4141 467.6607,-184.4405 474.5004,-185.9299"/>
<text text-anchor="middle" x="474.189" y="-215.8" font-family="Times,serif" font-size="14.00" fill="#000000">Yes</text>
</g>
<!-- Perceive solution?&#45;&gt;Enter solution -->
<g id="edge13" class="edge">
<title>Perceive solution?&#45;&gt;Enter solution</title>
<path fill="none" stroke="#000000" d="M477,-139.9693C477,-119.5822 477,-86.1268 477,-62.2614"/>
<polygon fill="#000000" stroke="#000000" points="480.5001,-62.0524 477,-52.0524 473.5001,-62.0525 480.5001,-62.0524"/>
<text text-anchor="middle" x="487.189" y="-91.8" font-family="Times,serif" font-size="14.00" fill="#000000">Yes</text>
</g>
<!-- Perceive solution?&#45;&gt;Research -->
<g id="edge14" class="edge">
<title>Perceive solution?&#45;&gt;Research</title>
<path fill="none" stroke="#000000" d="M462.8151,-142.2953C444.1189,-121.5959 410.9755,-84.9015 388.5051,-60.0235"/>
<polygon fill="#000000" stroke="#000000" points="390.9167,-57.4718 381.6164,-52.3967 385.7219,-62.1638 390.9167,-57.4718"/>
<text text-anchor="middle" x="434.5552" y="-91.8" font-family="Times,serif" font-size="14.00" fill="#000000">No</text>
</g>
</g>
</svg>
