<?xml version="1.0" encoding="UTF-8" standalone="no"?>
<!DOCTYPE svg PUBLIC "-//W3C//DTD SVG 1.1//EN"
 "http://www.w3.org/Graphics/SVG/1.1/DTD/svg11.dtd">
<!-- Generated by graphviz version 2.40.1 (20161225.0304)
 -->
<!-- Title: %3 Pages: 1 -->
<svg width="745pt" height="775pt"
 viewBox="0.00 0.00 745.00 775.00" xmlns="http://www.w3.org/2000/svg" xmlns:xlink="http://www.w3.org/1999/xlink">
<g id="graph0" class="graph" transform="scale(1 1) rotate(0) translate(4 771)">
<title>%3</title>
<polygon fill="#ffffff" stroke="transparent" points="-4,4 -4,-771 741,-771 741,4 -4,4"/>
<g id="clust1" class="cluster">
<title>cluster_localize_problem_state</title>
<polygon fill="none" stroke="#000000" points="8,-81 8,-759 423,-759 423,-81 8,-81"/>
<text text-anchor="middle" x="215.5" y="-743.8" font-family="Times,serif" font-size="14.00" fill="#000000">Localize problem state to observe it</text>
</g>
<g id="clust2" class="cluster">
<title>cluster_debug_locally</title>
<polygon fill="none" stroke="#000000" points="431,-8 431,-666 729,-666 729,-8 431,-8"/>
<text text-anchor="middle" x="580" y="-650.8" font-family="Times,serif" font-size="14.00" fill="#000000">Debug locally</text>
</g>
<!-- Parse traceback for inner line -->
<g id="node1" class="node">
<title>Parse traceback for inner line</title>
<path fill="none" stroke="#000000" d="M237.0283,-563C237.0283,-563 80.9717,-563 80.9717,-563 74.9717,-563 68.9717,-557 68.9717,-551 68.9717,-551 68.9717,-539 68.9717,-539 68.9717,-533 74.9717,-527 80.9717,-527 80.9717,-527 237.0283,-527 237.0283,-527 243.0283,-527 249.0283,-533 249.0283,-539 249.0283,-539 249.0283,-551 249.0283,-551 249.0283,-557 243.0283,-563 237.0283,-563"/>
<text text-anchor="middle" x="159" y="-540.8" font-family="Times,serif" font-size="14.00" fill="#000000">Parse traceback for inner line</text>
</g>
<!-- From toolchain? -->
<g id="node6" class="node">
<title>From toolchain?</title>
<polygon fill="none" stroke="#000000" points="159,-417 62.2765,-399 159,-381 255.7235,-399 159,-417"/>
<text text-anchor="middle" x="159" y="-394.8" font-family="Times,serif" font-size="14.00" fill="#000000">From toolchain?</text>
</g>
<!-- Parse traceback for inner line&#45;&gt;From toolchain? -->
<g id="edge2" class="edge">
<title>Parse traceback for inner line&#45;&gt;From toolchain?</title>
<path fill="none" stroke="#000000" d="M159,-526.8042C159,-501.8868 159,-456.8938 159,-427.4877"/>
<polygon fill="#000000" stroke="#000000" points="162.5001,-427.4251 159,-417.4251 155.5001,-427.4251 162.5001,-427.4251"/>
</g>
<!-- Debug locally -->
<g id="node2" class="node">
<title>Debug locally</title>
<path fill="none" stroke="#000000" d="M403.4209,-729C403.4209,-729 332.5791,-729 332.5791,-729 326.5791,-729 320.5791,-723 320.5791,-717 320.5791,-717 320.5791,-705 320.5791,-705 320.5791,-699 326.5791,-693 332.5791,-693 332.5791,-693 403.4209,-693 403.4209,-693 409.4209,-693 415.4209,-699 415.4209,-705 415.4209,-705 415.4209,-717 415.4209,-717 415.4209,-723 409.4209,-729 403.4209,-729"/>
<text text-anchor="middle" x="368" y="-706.8" font-family="Times,serif" font-size="14.00" fill="#000000">Debug locally</text>
</g>
<!-- Problem in every row? -->
<g id="node13" class="node">
<title>Problem in every row?</title>
<polygon fill="none" stroke="#000000" points="570,-636 441.3881,-618 570,-600 698.6119,-618 570,-636"/>
<text text-anchor="middle" x="570" y="-613.8" font-family="Times,serif" font-size="14.00" fill="#000000">Problem in every row?</text>
</g>
<!-- Debug locally&#45;&gt;Problem in every row? -->
<g id="edge8" class="edge">
<title>Debug locally&#45;&gt;Problem in every row?</title>
<path fill="none" stroke="#000000" d="M407.4272,-692.8479C443.0515,-676.4466 495.2021,-652.4367 530.7663,-636.063"/>
<polygon fill="#000000" stroke="#000000" points="532.2598,-639.2286 539.8796,-631.8673 529.3323,-632.8701 532.2598,-639.2286"/>
</g>
<!-- Toolchain panic -->
<g id="node3" class="node">
<title>Toolchain panic</title>
<polygon fill="none" stroke="#000000" points="132.5994,-271 27.4006,-271 27.4006,-235 132.5994,-235 132.5994,-271"/>
<text text-anchor="middle" x="80" y="-248.8" font-family="Times,serif" font-size="14.00" fill="#000000">Toolchain panic</text>
</g>
<!-- Undistributed library -->
<g id="node4" class="node">
<title>Undistributed library</title>
<polygon fill="none" stroke="#000000" points="190.8107,-125 57.1893,-125 57.1893,-89 190.8107,-89 190.8107,-125"/>
<text text-anchor="middle" x="124" y="-102.8" font-family="Times,serif" font-size="14.00" fill="#000000">Undistributed library</text>
</g>
<!-- Do you have a traceback? -->
<g id="node5" class="node">
<title>Do you have a traceback?</title>
<polygon fill="none" stroke="#000000" points="159,-729 15.5874,-711 159,-693 302.4126,-711 159,-729"/>
<text text-anchor="middle" x="159" y="-706.8" font-family="Times,serif" font-size="14.00" fill="#000000">Do you have a traceback?</text>
</g>
<!-- Do you have a traceback?&#45;&gt;Parse traceback for inner line -->
<g id="edge1" class="edge">
<title>Do you have a traceback?&#45;&gt;Parse traceback for inner line</title>
<path fill="none" stroke="#000000" d="M159,-692.9191C159,-664.1059 159,-607.5425 159,-573.321"/>
<polygon fill="#000000" stroke="#000000" points="162.5001,-573.0586 159,-563.0586 155.5001,-573.0587 162.5001,-573.0586"/>
<text text-anchor="middle" x="168.3311" y="-613.8" font-family="Times,serif" font-size="14.00" fill="#000000">yes</text>
</g>
<!-- From toolchain?&#45;&gt;Toolchain panic -->
<g id="edge3" class="edge">
<title>From toolchain?&#45;&gt;Toolchain panic</title>
<path fill="none" stroke="#000000" d="M150.0913,-382.5357C136.6917,-357.772 111.1905,-310.6432 94.9212,-280.5759"/>
<polygon fill="#000000" stroke="#000000" points="97.8276,-278.5926 89.9904,-271.4632 91.6711,-281.9239 97.8276,-278.5926"/>
<text text-anchor="middle" x="138.189" y="-321.8" font-family="Times,serif" font-size="14.00" fill="#000000">Yes</text>
</g>
<!-- ImportError? -->
<g id="node7" class="node">
<title>ImportError?</title>
<polygon fill="none" stroke="#000000" points="231,-271 150.9591,-253 231,-235 311.0409,-253 231,-271"/>
<text text-anchor="middle" x="231" y="-248.8" font-family="Times,serif" font-size="14.00" fill="#000000">ImportError?</text>
</g>
<!-- From toolchain?&#45;&gt;ImportError? -->
<g id="edge4" class="edge">
<title>From toolchain?&#45;&gt;ImportError?</title>
<path fill="none" stroke="#000000" d="M167.2593,-382.2519C179.7916,-356.8393 203.7042,-308.3498 218.4115,-278.5267"/>
<polygon fill="#000000" stroke="#000000" points="221.5531,-280.0695 222.837,-269.5527 215.275,-276.9734 221.5531,-280.0695"/>
<text text-anchor="middle" x="211.5552" y="-321.8" font-family="Times,serif" font-size="14.00" fill="#000000">No</text>
</g>
<!-- ImportError?&#45;&gt;Undistributed library -->
<g id="edge5" class="edge">
<title>ImportError?&#45;&gt;Undistributed library</title>
<path fill="none" stroke="#000000" d="M219.5491,-237.3754C201.3937,-212.6027 165.7856,-164.0159 143.5374,-133.6585"/>
<polygon fill="#000000" stroke="#000000" points="146.1033,-131.2387 137.369,-125.2418 140.4572,-135.3766 146.1033,-131.2387"/>
<text text-anchor="middle" x="199.189" y="-175.8" font-family="Times,serif" font-size="14.00" fill="#000000">Yes</text>
</g>
<!-- code_vs_data -->
<g id="node8" class="node">
<title>code_vs_data</title>
<polygon fill="none" stroke="#000000" points="291,-125 208.7825,-107 291,-89 373.2175,-107 291,-125"/>
<text text-anchor="middle" x="291" y="-102.8" font-family="Times,serif" font-size="14.00" fill="#000000">code_vs_data</text>
</g>
<!-- ImportError?&#45;&gt;code_vs_data -->
<g id="edge6" class="edge">
<title>ImportError?&#45;&gt;code_vs_data</title>
<path fill="none" stroke="#000000" d="M233.6989,-235.4282C237.6358,-213.0141 246.2589,-173.503 262,-143 264.2727,-138.596 267.1363,-134.222 270.1735,-130.1198"/>
<polygon fill="#000000" stroke="#000000" points="273.0228,-132.1603 276.5179,-122.1586 267.5485,-127.7977 273.0228,-132.1603"/>
<text text-anchor="middle" x="260.5552" y="-175.8" font-family="Times,serif" font-size="14.00" fill="#000000">No</text>
</g>
<!-- code_vs_data&#45;&gt;Debug locally -->
<g id="edge7" class="edge">
<title>code_vs_data&#45;&gt;Debug locally</title>
<path fill="none" stroke="#000000" d="M295.618,-124.2591C302.0018,-148.7243 313.4723,-194.9707 320,-235 347.465,-403.4205 361.7621,-608.095 366.3372,-682.3544"/>
<polygon fill="#000000" stroke="#000000" points="362.8678,-682.9667 366.9654,-692.737 369.855,-682.5439 362.8678,-682.9667"/>
</g>
<!-- take() -->
<g id="node9" class="node">
<title>take()</title>
<path fill="none" stroke="#000000" d="M585,-490C585,-490 555,-490 555,-490 549,-490 543,-484 543,-478 543,-478 543,-466 543,-466 543,-460 549,-454 555,-454 555,-454 585,-454 585,-454 591,-454 597,-460 597,-466 597,-466 597,-478 597,-478 597,-484 591,-490 585,-490"/>
<text text-anchor="middle" x="570" y="-467.8" font-family="Times,serif" font-size="14.00" fill="#000000">take()</text>
</g>
<!-- Problem in these rows? -->
<g id="node14" class="node">
<title>Problem in these rows?</title>
<polygon fill="none" stroke="#000000" points="570,-344 438.8064,-326 570,-308 701.1936,-326 570,-344"/>
<text text-anchor="middle" x="570" y="-321.8" font-family="Times,serif" font-size="14.00" fill="#000000">Problem in these rows?</text>
</g>
<!-- take()&#45;&gt;Problem in these rows? -->
<g id="edge11" class="edge">
<title>take()&#45;&gt;Problem in these rows?</title>
<path fill="none" stroke="#000000" d="M570,-453.8042C570,-428.8868 570,-383.8938 570,-354.4877"/>
<polygon fill="#000000" stroke="#000000" points="573.5001,-354.4251 570,-344.4251 566.5001,-354.4251 573.5001,-354.4251"/>
</g>
<!-- Filter problems -->
<g id="node10" class="node">
<title>Filter problems</title>
<path fill="none" stroke="#000000" d="M680.9346,-198C680.9346,-198 603.0654,-198 603.0654,-198 597.0654,-198 591.0654,-192 591.0654,-186 591.0654,-186 591.0654,-174 591.0654,-174 591.0654,-168 597.0654,-162 603.0654,-162 603.0654,-162 680.9346,-162 680.9346,-162 686.9346,-162 692.9346,-168 692.9346,-174 692.9346,-174 692.9346,-186 692.9346,-186 692.9346,-192 686.9346,-198 680.9346,-198"/>
<text text-anchor="middle" x="642" y="-175.8" font-family="Times,serif" font-size="14.00" fill="#000000">Filter problems</text>
</g>
<!-- Distribute map() that returns true for problems -->
<g id="node11" class="node">
<title>Distribute map() that returns true for problems</title>
<path fill="none" stroke="#000000" d="M709.4838,-52C709.4838,-52 456.5162,-52 456.5162,-52 450.5162,-52 444.5162,-46 444.5162,-40 444.5162,-40 444.5162,-28 444.5162,-28 444.5162,-22 450.5162,-16 456.5162,-16 456.5162,-16 709.4838,-16 709.4838,-16 715.4838,-16 721.4838,-22 721.4838,-28 721.4838,-28 721.4838,-40 721.4838,-40 721.4838,-46 715.4838,-52 709.4838,-52"/>
<text text-anchor="middle" x="583" y="-29.8" font-family="Times,serif" font-size="14.00" fill="#000000">Distribute map() that returns true for problems</text>
</g>
<!-- Filter problems&#45;&gt;Distribute map() that returns true for problems -->
<g id="edge14" class="edge">
<title>Filter problems&#45;&gt;Distribute map() that returns true for problems</title>
<path fill="none" stroke="#000000" d="M634.6469,-161.8042C624.4892,-136.6682 606.0758,-91.1029 594.2009,-61.7175"/>
<polygon fill="#000000" stroke="#000000" points="597.4376,-60.3853 590.4458,-52.4251 590.9475,-63.0081 597.4376,-60.3853"/>
</g>
<!-- Normal coding -->
<g id="node12" class="node">
<title>Normal coding</title>
<polygon fill="none" stroke="#000000" points="573.3698,-198 472.6302,-198 472.6302,-162 573.3698,-162 573.3698,-198"/>
<text text-anchor="middle" x="523" y="-175.8" font-family="Times,serif" font-size="14.00" fill="#000000">Normal coding</text>
</g>
<!-- Problem in every row?&#45;&gt;take() -->
<g id="edge9" class="edge">
<title>Problem in every row?&#45;&gt;take()</title>
<path fill="none" stroke="#000000" d="M570,-599.8042C570,-574.8868 570,-529.8938 570,-500.4877"/>
<polygon fill="#000000" stroke="#000000" points="573.5001,-500.4251 570,-490.4251 566.5001,-500.4251 573.5001,-500.4251"/>
<text text-anchor="middle" x="604.2925" y="-540.8" font-family="Times,serif" font-size="14.00" fill="#000000">Yes / maybe</text>
</g>
<!-- Problem in every row?&#45;&gt;Filter problems -->
<g id="edge10" class="edge">
<title>Problem in every row?&#45;&gt;Filter problems</title>
<path fill="none" stroke="#000000" d="M631.5094,-608.4608C666.7357,-599.1091 704,-580.7643 704,-545 704,-545 704,-545 704,-435.5 704,-378.7706 723.7142,-363.0467 710,-308 700.6271,-270.3787 677.9041,-231.6761 661.2962,-206.822"/>
<polygon fill="#000000" stroke="#000000" points="664.0199,-204.6041 655.4902,-198.3195 658.239,-208.5515 664.0199,-204.6041"/>
<text text-anchor="middle" x="718.5552" y="-394.8" font-family="Times,serif" font-size="14.00" fill="#000000">No</text>
</g>
<!-- Problem in these rows?&#45;&gt;Filter problems -->
<g id="edge13" class="edge">
<title>Problem in these rows?&#45;&gt;Filter problems</title>
<path fill="none" stroke="#000000" d="M578.4002,-308.9662C590.7182,-283.9881 613.8102,-237.1626 628.5198,-207.3349"/>
<polygon fill="#000000" stroke="#000000" points="631.6929,-208.8138 632.9768,-198.2971 625.4148,-205.7177 631.6929,-208.8138"/>
<text text-anchor="middle" x="622.5552" y="-248.8" font-family="Times,serif" font-size="14.00" fill="#000000">No</text>
</g>
<!-- Problem in these rows?&#45;&gt;Normal coding -->
<g id="edge12" class="edge">
<title>Problem in these rows?&#45;&gt;Normal coding</title>
<path fill="none" stroke="#000000" d="M564.4239,-308.6786C556.4194,-283.8134 541.5841,-237.7293 532.0105,-207.9901"/>
<polygon fill="#000000" stroke="#000000" points="535.2595,-206.6606 528.8635,-198.2142 528.5962,-208.8057 535.2595,-206.6606"/>
<text text-anchor="middle" x="561.189" y="-248.8" font-family="Times,serif" font-size="14.00" fill="#000000">Yes</text>
</g>
</g>
</svg>
