<?xml version="1.0" encoding="UTF-8" standalone="no"?>
<!DOCTYPE svg PUBLIC "-//W3C//DTD SVG 1.1//EN"
 "http://www.w3.org/Graphics/SVG/1.1/DTD/svg11.dtd">
<!-- Generated by graphviz version 2.40.1 (20161225.0304)
 -->
<!-- Title: %3 Pages: 1 -->
<svg width="737pt" height="829pt"
 viewBox="0.00 0.00 737.00 829.00" xmlns="http://www.w3.org/2000/svg" xmlns:xlink="http://www.w3.org/1999/xlink">
<g id="graph0" class="graph" transform="scale(1 1) rotate(0) translate(4 825)">
<title>%3</title>
<polygon fill="#ffffff" stroke="transparent" points="-4,4 -4,-825 733,-825 733,4 -4,4"/>
<g id="clust1" class="cluster">
<title>cluster_slowness</title>
<polygon fill="none" stroke="#000000" points="8,-8 8,-813 721,-813 721,-8 8,-8"/>
<text text-anchor="middle" x="364.5" y="-797.8" font-family="Times,serif" font-size="14.00" fill="#000000">Slowness</text>
</g>
<!-- Heavy load -->
<g id="node1" class="node">
<title>Heavy load</title>
<path fill="none" stroke="#000000" d="M183.1417,-287C183.1417,-287 126.8583,-287 126.8583,-287 120.8583,-287 114.8583,-281 114.8583,-275 114.8583,-275 114.8583,-263 114.8583,-263 114.8583,-257 120.8583,-251 126.8583,-251 126.8583,-251 183.1417,-251 183.1417,-251 189.1417,-251 195.1417,-257 195.1417,-263 195.1417,-263 195.1417,-275 195.1417,-275 195.1417,-281 189.1417,-287 183.1417,-287"/>
<text text-anchor="middle" x="155" y="-264.8" font-family="Times,serif" font-size="14.00" fill="#000000">Heavy load</text>
</g>
<!-- Can we sample? -->
<g id="node12" class="node">
<title>Can we sample?</title>
<polygon fill="none" stroke="#000000" points="155,-176 58.9965,-158 155,-140 251.0035,-158 155,-176"/>
<text text-anchor="middle" x="155" y="-153.8" font-family="Times,serif" font-size="14.00" fill="#000000">Can we sample?</text>
</g>
<!-- Heavy load&#45;&gt;Can we sample? -->
<g id="edge10" class="edge">
<title>Heavy load&#45;&gt;Can we sample?</title>
<path fill="none" stroke="#000000" d="M155,-250.6706C155,-233.2373 155,-206.7482 155,-186.5489"/>
<polygon fill="#000000" stroke="#000000" points="158.5001,-186.3566 155,-176.3566 151.5001,-186.3567 158.5001,-186.3566"/>
</g>
<!-- Repartition on comparison key -->
<g id="node2" class="node">
<title>Repartition on comparison key</title>
<polygon fill="none" stroke="#000000" points="225.5176,-411 36.4824,-411 36.4824,-375 225.5176,-375 225.5176,-411"/>
<text text-anchor="middle" x="131" y="-388.8" font-family="Times,serif" font-size="14.00" fill="#000000">Repartition on comparison key</text>
</g>
<!-- Reallocate -->
<g id="node3" class="node">
<title>Reallocate</title>
<polygon fill="none" stroke="#000000" points="318.5762,-411 243.4238,-411 243.4238,-375 318.5762,-375 318.5762,-411"/>
<text text-anchor="middle" x="281" y="-388.8" font-family="Times,serif" font-size="14.00" fill="#000000">Reallocate</text>
</g>
<!-- Divide and conquer -->
<g id="node4" class="node">
<title>Divide and conquer</title>
<polygon fill="none" stroke="#000000" points="588.4079,-287 461.5921,-287 461.5921,-251 588.4079,-251 588.4079,-287"/>
<text text-anchor="middle" x="525" y="-264.8" font-family="Times,serif" font-size="14.00" fill="#000000">Divide and conquer</text>
</g>
<!-- Sample -->
<g id="node5" class="node">
<title>Sample</title>
<polygon fill="none" stroke="#000000" points="100.9932,-52 43.0068,-52 43.0068,-16 100.9932,-16 100.9932,-52"/>
<text text-anchor="middle" x="72" y="-29.8" font-family="Times,serif" font-size="14.00" fill="#000000">Sample</text>
</g>
<!-- Allocate more processing hardware -->
<g id="node6" class="node">
<title>Allocate more processing hardware</title>
<polygon fill="none" stroke="#000000" points="333.139,-52 118.861,-52 118.861,-16 333.139,-16 333.139,-52"/>
<text text-anchor="middle" x="226" y="-29.8" font-family="Times,serif" font-size="14.00" fill="#000000">Allocate more processing hardware</text>
</g>
<!-- [Exponential behavior]? -->
<g id="node7" class="node">
<title>[Exponential behavior]?</title>
<polygon fill="none" stroke="#000000" points="198,-783 62.5259,-765 198,-747 333.4741,-765 198,-783"/>
<text text-anchor="middle" x="198" y="-760.8" font-family="Times,serif" font-size="14.00" fill="#000000">[Exponential behavior]?</text>
</g>
<!-- [Exponential behavior]?&#45;&gt;Heavy load -->
<g id="edge2" class="edge">
<title>[Exponential behavior]?&#45;&gt;Heavy load</title>
<path fill="none" stroke="#000000" d="M140.6408,-754.4779C93.3479,-744.1135 34,-726.438 34,-703 34,-703 34,-703 34,-553.5 34,-474.1057 -6.7863,-446.8467 27,-375 44.0803,-338.6786 80.3936,-310.5314 109.9942,-292.3997"/>
<polygon fill="#000000" stroke="#000000" points="112.1207,-295.2078 118.9364,-287.0962 108.5499,-289.1871 112.1207,-295.2078"/>
<text text-anchor="middle" x="41.5552" y="-512.8" font-family="Times,serif" font-size="14.00" fill="#000000">No</text>
</g>
<!-- Invoking an exponential algorithm? -->
<g id="node8" class="node">
<title>Invoking an exponential algorithm?</title>
<polygon fill="none" stroke="#000000" points="246,-659 52.6822,-641 246,-623 439.3178,-641 246,-659"/>
<text text-anchor="middle" x="246" y="-636.8" font-family="Times,serif" font-size="14.00" fill="#000000">Invoking an exponential algorithm?</text>
</g>
<!-- [Exponential behavior]?&#45;&gt;Invoking an exponential algorithm? -->
<g id="edge1" class="edge">
<title>[Exponential behavior]?&#45;&gt;Invoking an exponential algorithm?</title>
<path fill="none" stroke="#000000" d="M204.6742,-747.7583C212.689,-727.0535 226.2235,-692.0892 235.6097,-667.8417"/>
<polygon fill="#000000" stroke="#000000" points="238.8817,-669.0842 239.2277,-658.495 232.3538,-666.5572 238.8817,-669.0842"/>
<text text-anchor="middle" x="234.189" y="-698.8" font-family="Times,serif" font-size="14.00" fill="#000000">Yes</text>
</g>
<!-- Comparing many to many? -->
<g id="node9" class="node">
<title>Comparing many to many?</title>
<polygon fill="none" stroke="#000000" points="220,-535 69.4066,-517 220,-499 370.5934,-517 220,-535"/>
<text text-anchor="middle" x="220" y="-512.8" font-family="Times,serif" font-size="14.00" fill="#000000">Comparing many to many?</text>
</g>
<!-- Invoking an exponential algorithm?&#45;&gt;Comparing many to many? -->
<g id="edge3" class="edge">
<title>Invoking an exponential algorithm?&#45;&gt;Comparing many to many?</title>
<path fill="none" stroke="#000000" d="M242.2748,-623.2338C237.9694,-602.7001 230.8318,-568.6596 225.7985,-544.6546"/>
<polygon fill="#000000" stroke="#000000" points="229.196,-543.8021 223.7183,-534.7332 222.345,-545.2387 229.196,-543.8021"/>
<text text-anchor="middle" x="244.189" y="-574.8" font-family="Times,serif" font-size="14.00" fill="#000000">Yes</text>
</g>
<!-- Is data skewed? -->
<g id="node10" class="node">
<title>Is data skewed?</title>
<polygon fill="none" stroke="#000000" points="482,-535 388.5665,-517 482,-499 575.4335,-517 482,-535"/>
<text text-anchor="middle" x="482" y="-512.8" font-family="Times,serif" font-size="14.00" fill="#000000">Is data skewed?</text>
</g>
<!-- Invoking an exponential algorithm?&#45;&gt;Is data skewed? -->
<g id="edge4" class="edge">
<title>Invoking an exponential algorithm?&#45;&gt;Is data skewed?</title>
<path fill="none" stroke="#000000" d="M275.4124,-625.546C319.2242,-602.5263 401.4318,-559.3325 447.8435,-534.9466"/>
<polygon fill="#000000" stroke="#000000" points="449.6774,-537.9368 456.9019,-530.1871 446.4215,-531.7401 449.6774,-537.9368"/>
<text text-anchor="middle" x="383.5552" y="-574.8" font-family="Times,serif" font-size="14.00" fill="#000000">No</text>
</g>
<!-- Comparing many to many?&#45;&gt;Repartition on comparison key -->
<g id="edge5" class="edge">
<title>Comparing many to many?&#45;&gt;Repartition on comparison key</title>
<path fill="none" stroke="#000000" d="M207.9971,-500.2768C193.057,-479.4614 167.3716,-443.6751 149.808,-419.2044"/>
<polygon fill="#000000" stroke="#000000" points="152.6396,-417.147 143.9652,-411.0638 146.9528,-421.2287 152.6396,-417.147"/>
<text text-anchor="middle" x="189.189" y="-450.8" font-family="Times,serif" font-size="14.00" fill="#000000">Yes</text>
</g>
<!-- Is data skewed?&#45;&gt;Reallocate -->
<g id="edge6" class="edge">
<title>Is data skewed?&#45;&gt;Reallocate</title>
<path fill="none" stroke="#000000" d="M459.7215,-503.2561C425.7261,-482.2837 360.4804,-442.0327 318.9303,-416.3998"/>
<polygon fill="#000000" stroke="#000000" points="320.5369,-413.2785 310.1885,-411.0068 316.8616,-419.2361 320.5369,-413.2785"/>
<text text-anchor="middle" x="401.189" y="-450.8" font-family="Times,serif" font-size="14.00" fill="#000000">Yes</text>
</g>
<!-- Is processing function associative? -->
<g id="node11" class="node">
<title>Is processing function associative?</title>
<polygon fill="none" stroke="#000000" points="525,-411 336.9162,-393 525,-375 713.0838,-393 525,-411"/>
<text text-anchor="middle" x="525" y="-388.8" font-family="Times,serif" font-size="14.00" fill="#000000">Is processing function associative?</text>
</g>
<!-- Is data skewed?&#45;&gt;Is processing function associative? -->
<g id="edge7" class="edge">
<title>Is data skewed?&#45;&gt;Is processing function associative?</title>
<path fill="none" stroke="#000000" d="M487.8888,-500.0183C495.0134,-479.4729 507.1003,-444.6178 515.5376,-420.2868"/>
<polygon fill="#000000" stroke="#000000" points="518.9355,-421.1708 518.9051,-410.576 512.3219,-418.8773 518.9355,-421.1708"/>
<text text-anchor="middle" x="513.5552" y="-450.8" font-family="Times,serif" font-size="14.00" fill="#000000">No</text>
</g>
<!-- Is processing function associative?&#45;&gt;Heavy load -->
<g id="edge9" class="edge">
<title>Is processing function associative?&#45;&gt;Heavy load</title>
<path fill="none" stroke="#000000" d="M482.9165,-378.8963C414.1249,-355.8419 277.9238,-310.1961 204.5643,-285.6107"/>
<polygon fill="#000000" stroke="#000000" points="205.6689,-282.2897 195.075,-282.4305 203.4445,-288.9269 205.6689,-282.2897"/>
<text text-anchor="middle" x="366.5552" y="-326.8" font-family="Times,serif" font-size="14.00" fill="#000000">No</text>
</g>
<!-- Is processing function associative?&#45;&gt;Divide and conquer -->
<g id="edge8" class="edge">
<title>Is processing function associative?&#45;&gt;Divide and conquer</title>
<path fill="none" stroke="#000000" d="M525,-374.9693C525,-354.5822 525,-321.1268 525,-297.2614"/>
<polygon fill="#000000" stroke="#000000" points="528.5001,-297.0524 525,-287.0524 521.5001,-297.0525 528.5001,-297.0524"/>
<text text-anchor="middle" x="535.189" y="-326.8" font-family="Times,serif" font-size="14.00" fill="#000000">Yes</text>
</g>
<!-- Can we sample?&#45;&gt;Sample -->
<g id="edge11" class="edge">
<title>Can we sample?&#45;&gt;Sample</title>
<path fill="none" stroke="#000000" d="M144.1492,-141.7892C130.3735,-121.2086 106.4177,-85.4192 89.9132,-60.7618"/>
<polygon fill="#000000" stroke="#000000" points="92.6734,-58.5933 84.2023,-52.23 86.8563,-62.4871 92.6734,-58.5933"/>
<text text-anchor="middle" x="127.189" y="-91.8" font-family="Times,serif" font-size="14.00" fill="#000000">Yes</text>
</g>
<!-- Can we sample?&#45;&gt;Allocate more processing hardware -->
<g id="edge12" class="edge">
<title>Can we sample?&#45;&gt;Allocate more processing hardware</title>
<path fill="none" stroke="#000000" d="M164.4283,-141.5338C176.2021,-120.971 196.503,-85.5158 210.559,-60.9674"/>
<polygon fill="#000000" stroke="#000000" points="213.6778,-62.5641 215.6095,-52.1468 207.6031,-59.0858 213.6778,-62.5641"/>
<text text-anchor="middle" x="202.5552" y="-91.8" font-family="Times,serif" font-size="14.00" fill="#000000">No</text>
</g>
</g>
</svg>
