<?xml version="1.0" encoding="UTF-8" standalone="no"?>
<!DOCTYPE svg PUBLIC "-//W3C//DTD SVG 1.1//EN"
 "http://www.w3.org/Graphics/SVG/1.1/DTD/svg11.dtd">
<!-- Generated by graphviz version 2.40.1 (20161225.0304)
 -->
<!-- Title: %3 Pages: 1 -->
<svg width="699pt" height="324pt"
 viewBox="0.00 0.00 699.00 324.00" xmlns="http://www.w3.org/2000/svg" xmlns:xlink="http://www.w3.org/1999/xlink">
<g id="graph0" class="graph" transform="scale(1 1) rotate(0) translate(4 320)">
<title>%3</title>
<polygon fill="#ffffff" stroke="transparent" points="-4,4 -4,-320 695,-320 695,4 -4,4"/>
<g id="clust1" class="cluster">
<title>cluster_symptoms</title>
<polygon fill="none" stroke="#000000" points="158,-162 158,-308 475,-308 475,-162 158,-162"/>
<text text-anchor="middle" x="316.5" y="-292.8" font-family="Times,serif" font-size="14.00" fill="#000000">Symptoms</text>
</g>
<g id="clust2" class="cluster">
<title>cluster_causes</title>
<polygon fill="none" stroke="#000000" points="8,-8 8,-154 683,-154 683,-8 8,-8"/>
<text text-anchor="middle" x="345.5" y="-138.8" font-family="Times,serif" font-size="14.00" fill="#000000">Root Causes</text>
</g>
<!-- Traceback -->
<g id="node1" class="node">
<title>Traceback</title>
<path fill="none" stroke="#000000" d="M454.7981,-278C454.7981,-278 405.2019,-278 405.2019,-278 399.2019,-278 393.2019,-272 393.2019,-266 393.2019,-266 393.2019,-254 393.2019,-254 393.2019,-248 399.2019,-242 405.2019,-242 405.2019,-242 454.7981,-242 454.7981,-242 460.7981,-242 466.7981,-248 466.7981,-254 466.7981,-254 466.7981,-266 466.7981,-266 466.7981,-272 460.7981,-278 454.7981,-278"/>
<text text-anchor="middle" x="430" y="-255.8" font-family="Times,serif" font-size="14.00" fill="#000000">Traceback</text>
</g>
<!-- To ... -->
<g id="node4" class="node">
<title>To ...</title>
<path fill="none" stroke="#000000" d="M330.0737,-201.0385C330.0737,-201.0385 312.2869,-192.9615 312.2869,-192.9615 306.8238,-190.4808 306.8238,-185.5192 312.2869,-183.0385 312.2869,-183.0385 330.0737,-174.9615 330.0737,-174.9615 335.5369,-172.4808 346.4631,-172.4808 351.9263,-174.9615 351.9263,-174.9615 369.7131,-183.0385 369.7131,-183.0385 375.1762,-185.5192 375.1762,-190.4808 369.7131,-192.9615 369.7131,-192.9615 351.9263,-201.0385 351.9263,-201.0385 346.4631,-203.5192 335.5369,-203.5192 330.0737,-201.0385"/>
<text text-anchor="middle" x="341" y="-183.8" font-family="Times,serif" font-size="14.00" fill="#000000">To ...</text>
</g>
<!-- Traceback&#45;&gt;To ... -->
<g id="edge1" class="edge">
<title>Traceback&#45;&gt;To ...</title>
<path fill="none" stroke="#000000" d="M407.5415,-241.8314C393.9806,-230.8607 376.7661,-216.9344 363.244,-205.9951"/>
<polygon fill="#000000" stroke="#000000" points="365.3432,-203.1915 355.3674,-199.623 360.9405,-208.6336 365.3432,-203.1915"/>
</g>
<!-- Slowness -->
<g id="node2" class="node">
<title>Slowness</title>
<path fill="none" stroke="#000000" d="M363.3966,-278C363.3966,-278 318.6034,-278 318.6034,-278 312.6034,-278 306.6034,-272 306.6034,-266 306.6034,-266 306.6034,-254 306.6034,-254 306.6034,-248 312.6034,-242 318.6034,-242 318.6034,-242 363.3966,-242 363.3966,-242 369.3966,-242 375.3966,-248 375.3966,-254 375.3966,-254 375.3966,-266 375.3966,-266 375.3966,-272 369.3966,-278 363.3966,-278"/>
<text text-anchor="middle" x="341" y="-255.8" font-family="Times,serif" font-size="14.00" fill="#000000">Slowness</text>
</g>
<!-- Slowness&#45;&gt;To ... -->
<g id="edge2" class="edge">
<title>Slowness&#45;&gt;To ...</title>
<path fill="none" stroke="#000000" d="M341,-241.8314C341,-234.131 341,-224.9743 341,-216.4166"/>
<polygon fill="#000000" stroke="#000000" points="344.5001,-216.4132 341,-206.4133 337.5001,-216.4133 344.5001,-216.4132"/>
</g>
<!-- Unexpected Result -->
<g id="node3" class="node">
<title>Unexpected Result</title>
<path fill="none" stroke="#000000" d="M276.1348,-278C276.1348,-278 177.8652,-278 177.8652,-278 171.8652,-278 165.8652,-272 165.8652,-266 165.8652,-266 165.8652,-254 165.8652,-254 165.8652,-248 171.8652,-242 177.8652,-242 177.8652,-242 276.1348,-242 276.1348,-242 282.1348,-242 288.1348,-248 288.1348,-254 288.1348,-254 288.1348,-266 288.1348,-266 288.1348,-272 282.1348,-278 276.1348,-278"/>
<text text-anchor="middle" x="227" y="-255.8" font-family="Times,serif" font-size="14.00" fill="#000000">Unexpected Result</text>
</g>
<!-- Unexpected Result&#45;&gt;To ... -->
<g id="edge3" class="edge">
<title>Unexpected Result&#45;&gt;To ...</title>
<path fill="none" stroke="#000000" d="M255.767,-241.8314C274.1905,-230.1955 297.8786,-215.2346 315.6043,-204.0394"/>
<polygon fill="#000000" stroke="#000000" points="317.6848,-206.865 324.2708,-198.5658 313.9469,-200.9466 317.6848,-206.865"/>
</g>
<!-- ... one of: -->
<g id="node10" class="node">
<title>... one of:</title>
<path fill="none" stroke="#000000" d="M329.4794,-120.642C329.4794,-120.642 290.7669,-109.358 290.7669,-109.358 285.0066,-107.679 285.0066,-104.321 290.7669,-102.642 290.7669,-102.642 329.4794,-91.358 329.4794,-91.358 335.2397,-89.679 346.7603,-89.679 352.5206,-91.358 352.5206,-91.358 391.2331,-102.642 391.2331,-102.642 396.9934,-104.321 396.9934,-107.679 391.2331,-109.358 391.2331,-109.358 352.5206,-120.642 352.5206,-120.642 346.7603,-122.321 335.2397,-122.321 329.4794,-120.642"/>
<text text-anchor="middle" x="341" y="-101.8" font-family="Times,serif" font-size="14.00" fill="#000000">... one of:</text>
</g>
<!-- To ...&#45;&gt;... one of: -->
<g id="edge4" class="edge">
<title>To ...&#45;&gt;... one of:</title>
<path fill="none" stroke="#000000" d="M341,-169.8015C341,-159.3976 341,-146.1215 341,-134.3768"/>
<polygon fill="#000000" stroke="#000000" points="344.5001,-134.1476 341,-124.1476 337.5001,-134.1476 344.5001,-134.1476"/>
</g>
<!-- Data Variance -->
<g id="node5" class="node">
<title>Data Variance</title>
<path fill="none" stroke="#000000" d="M98.1481,-52C98.1481,-52 27.8519,-52 27.8519,-52 21.8519,-52 15.8519,-46 15.8519,-40 15.8519,-40 15.8519,-28 15.8519,-28 15.8519,-22 21.8519,-16 27.8519,-16 27.8519,-16 98.1481,-16 98.1481,-16 104.1481,-16 110.1481,-22 110.1481,-28 110.1481,-28 110.1481,-40 110.1481,-40 110.1481,-46 104.1481,-52 98.1481,-52"/>
<text text-anchor="middle" x="63" y="-29.8" font-family="Times,serif" font-size="14.00" fill="#000000">Data Variance</text>
</g>
<!-- Exponential Behavior -->
<g id="node6" class="node">
<title>Exponential Behavior</title>
<path fill="none" stroke="#000000" d="M255.4666,-52C255.4666,-52 140.5334,-52 140.5334,-52 134.5334,-52 128.5334,-46 128.5334,-40 128.5334,-40 128.5334,-28 128.5334,-28 128.5334,-22 134.5334,-16 140.5334,-16 140.5334,-16 255.4666,-16 255.4666,-16 261.4666,-16 267.4666,-22 267.4666,-28 267.4666,-28 267.4666,-40 267.4666,-40 267.4666,-46 261.4666,-52 255.4666,-52"/>
<text text-anchor="middle" x="198" y="-29.8" font-family="Times,serif" font-size="14.00" fill="#000000">Exponential Behavior</text>
</g>
<!-- Framework State -->
<g id="node7" class="node">
<title>Framework State</title>
<path fill="none" stroke="#000000" d="M385.0313,-52C385.0313,-52 296.9687,-52 296.9687,-52 290.9687,-52 284.9687,-46 284.9687,-40 284.9687,-40 284.9687,-28 284.9687,-28 284.9687,-22 290.9687,-16 296.9687,-16 296.9687,-16 385.0313,-16 385.0313,-16 391.0313,-16 397.0313,-22 397.0313,-28 397.0313,-28 397.0313,-40 397.0313,-40 397.0313,-46 391.0313,-52 385.0313,-52"/>
<text text-anchor="middle" x="341" y="-29.8" font-family="Times,serif" font-size="14.00" fill="#000000">Framework State</text>
</g>
<!-- Inaccurate Mental Model -->
<g id="node8" class="node">
<title>Inaccurate Mental Model</title>
<path fill="none" stroke="#000000" d="M560.991,-52C560.991,-52 427.009,-52 427.009,-52 421.009,-52 415.009,-46 415.009,-40 415.009,-40 415.009,-28 415.009,-28 415.009,-22 421.009,-16 427.009,-16 427.009,-16 560.991,-16 560.991,-16 566.991,-16 572.991,-22 572.991,-28 572.991,-28 572.991,-40 572.991,-40 572.991,-46 566.991,-52 560.991,-52"/>
<text text-anchor="middle" x="494" y="-29.8" font-family="Times,serif" font-size="14.00" fill="#000000">Inaccurate Mental Model</text>
</g>
<!-- Heavy Load -->
<g id="node9" class="node">
<title>Heavy Load</title>
<path fill="none" stroke="#000000" d="M663.3039,-52C663.3039,-52 602.6961,-52 602.6961,-52 596.6961,-52 590.6961,-46 590.6961,-40 590.6961,-40 590.6961,-28 590.6961,-28 590.6961,-22 596.6961,-16 602.6961,-16 602.6961,-16 663.3039,-16 663.3039,-16 669.3039,-16 675.3039,-22 675.3039,-28 675.3039,-28 675.3039,-40 675.3039,-40 675.3039,-46 669.3039,-52 663.3039,-52"/>
<text text-anchor="middle" x="633" y="-29.8" font-family="Times,serif" font-size="14.00" fill="#000000">Heavy Load</text>
</g>
<!-- ... one of:&#45;&gt;Data Variance -->
<g id="edge5" class="edge">
<title>... one of:&#45;&gt;Data Variance</title>
<path fill="none" stroke="#000000" d="M305.9822,-98.1982C262.2476,-88.2814 185.2328,-70.2479 120,-52 119.9001,-51.972 119.8,-51.944 119.6999,-51.916"/>
<polygon fill="#000000" stroke="#000000" points="120.7839,-48.5861 110.2053,-49.1718 118.8402,-55.3108 120.7839,-48.5861"/>
</g>
<!-- ... one of:&#45;&gt;Exponential Behavior -->
<g id="edge6" class="edge">
<title>... one of:&#45;&gt;Exponential Behavior</title>
<path fill="none" stroke="#000000" d="M318.3412,-94.5914C298.1408,-84.4205 267.9773,-69.2333 242.9031,-56.6086"/>
<polygon fill="#000000" stroke="#000000" points="244.4292,-53.4584 233.9234,-52.0873 241.2812,-59.7106 244.4292,-53.4584"/>
</g>
<!-- ... one of:&#45;&gt;Framework State -->
<g id="edge7" class="edge">
<title>... one of:&#45;&gt;Framework State</title>
<path fill="none" stroke="#000000" d="M341,-87.8314C341,-80.131 341,-70.9743 341,-62.4166"/>
<polygon fill="#000000" stroke="#000000" points="344.5001,-62.4132 341,-52.4133 337.5001,-62.4133 344.5001,-62.4132"/>
</g>
<!-- ... one of:&#45;&gt;Inaccurate Mental Model -->
<g id="edge8" class="edge">
<title>... one of:&#45;&gt;Inaccurate Mental Model</title>
<path fill="none" stroke="#000000" d="M364.9063,-94.75C386.6336,-84.5254 419.3316,-69.1381 446.3823,-56.4083"/>
<polygon fill="#000000" stroke="#000000" points="448.1299,-59.4542 455.6878,-52.0293 445.1493,-53.1204 448.1299,-59.4542"/>
</g>
<!-- ... one of:&#45;&gt;Heavy Load -->
<g id="edge9" class="edge">
<title>... one of:&#45;&gt;Heavy Load</title>
<path fill="none" stroke="#000000" d="M378.9202,-98.9534C424.734,-90.1227 504.2557,-73.7826 580.7499,-52.2059"/>
<polygon fill="#000000" stroke="#000000" points="581.8908,-55.5201 590.5454,-49.4089 579.9687,-48.7892 581.8908,-55.5201"/>
</g>
</g>
</svg>
