<?xml version="1.0" encoding="UTF-8" standalone="no"?>
<!DOCTYPE svg PUBLIC "-//W3C//DTD SVG 1.1//EN"
 "http://www.w3.org/Graphics/SVG/1.1/DTD/svg11.dtd">
<!-- Generated by graphviz version 2.40.1 (20161225.0304)
 -->
<!-- Title: %3 Pages: 1 -->
<svg width="332pt" height="692pt"
 viewBox="0.00 0.00 332.00 692.00" xmlns="http://www.w3.org/2000/svg" xmlns:xlink="http://www.w3.org/1999/xlink">
<g id="graph0" class="graph" transform="scale(1 1) rotate(0) translate(4 688)">
<title>%3</title>
<polygon fill="#ffffff" stroke="transparent" points="-4,4 -4,-688 328,-688 328,4 -4,4"/>
<g id="clust1" class="cluster">
<title>cluster_traceback</title>
<polygon fill="none" stroke="#000000" points="8,-8 8,-676 316,-676 316,-8 8,-8"/>
<text text-anchor="middle" x="162" y="-660.8" font-family="Times,serif" font-size="14.00" fill="#000000">Traceback</text>
</g>
<!-- Parse traceback for inner line -->
<g id="node1" class="node">
<title>Parse traceback for inner line</title>
<path fill="none" stroke="#000000" d="M184.0283,-522C184.0283,-522 27.9717,-522 27.9717,-522 21.9717,-522 15.9717,-516 15.9717,-510 15.9717,-510 15.9717,-498 15.9717,-498 15.9717,-492 21.9717,-486 27.9717,-486 27.9717,-486 184.0283,-486 184.0283,-486 190.0283,-486 196.0283,-492 196.0283,-498 196.0283,-498 196.0283,-510 196.0283,-510 196.0283,-516 190.0283,-522 184.0283,-522"/>
<text text-anchor="middle" x="106" y="-499.8" font-family="Times,serif" font-size="14.00" fill="#000000">Parse traceback for inner line</text>
</g>
<!-- From toolchain? -->
<g id="node8" class="node">
<title>From toolchain?</title>
<polygon fill="none" stroke="#000000" points="113,-411 16.2765,-393 113,-375 209.7235,-393 113,-411"/>
<text text-anchor="middle" x="113" y="-388.8" font-family="Times,serif" font-size="14.00" fill="#000000">From toolchain?</text>
</g>
<!-- Parse traceback for inner line&#45;&gt;From toolchain? -->
<g id="edge3" class="edge">
<title>Parse traceback for inner line&#45;&gt;From toolchain?</title>
<path fill="none" stroke="#000000" d="M107.1559,-485.6706C108.2619,-468.1329 109.9458,-441.4306 111.2225,-421.1867"/>
<polygon fill="#000000" stroke="#000000" points="114.7292,-421.1888 111.8656,-410.9883 107.7431,-420.7482 114.7292,-421.1888"/>
</g>
<!-- Code vs. data -->
<g id="node2" class="node">
<title>Code vs. data</title>
<path fill="none" stroke="#000000" d="M143.8176,-163C143.8176,-163 76.1824,-163 76.1824,-163 70.1824,-163 64.1824,-157 64.1824,-151 64.1824,-151 64.1824,-139 64.1824,-139 64.1824,-133 70.1824,-127 76.1824,-127 76.1824,-127 143.8176,-127 143.8176,-127 149.8176,-127 155.8176,-133 155.8176,-139 155.8176,-139 155.8176,-151 155.8176,-151 155.8176,-157 149.8176,-163 143.8176,-163"/>
<text text-anchor="middle" x="110" y="-140.8" font-family="Times,serif" font-size="14.00" fill="#000000">Code vs. data</text>
</g>
<!-- to &quot;Localize problem state to observe it&quot; -->
<g id="node3" class="node">
<title>to &quot;Localize problem state to observe it&quot;</title>
<path fill="none" stroke="#000000" d="M246.0234,-52C246.0234,-52 27.9766,-52 27.9766,-52 21.9766,-52 15.9766,-46 15.9766,-40 15.9766,-40 15.9766,-28 15.9766,-28 15.9766,-22 21.9766,-16 27.9766,-16 27.9766,-16 246.0234,-16 246.0234,-16 252.0234,-16 258.0234,-22 258.0234,-28 258.0234,-28 258.0234,-40 258.0234,-40 258.0234,-46 252.0234,-52 246.0234,-52"/>
<text text-anchor="middle" x="137" y="-29.8" font-family="Times,serif" font-size="14.00" fill="#000000">to &quot;Localize problem state to observe it&quot;</text>
</g>
<!-- Code vs. data&#45;&gt;to &quot;Localize problem state to observe it&quot; -->
<g id="edge8" class="edge">
<title>Code vs. data&#45;&gt;to &quot;Localize problem state to observe it&quot;</title>
<path fill="none" stroke="#000000" d="M114.4585,-126.6706C118.7186,-109.1569 125.2018,-82.5039 130.1235,-62.2701"/>
<polygon fill="#000000" stroke="#000000" points="133.5721,-62.9006 132.5349,-52.3566 126.7704,-61.246 133.5721,-62.9006"/>
</g>
<!-- Enter solution -->
<g id="node4" class="node">
<title>Enter solution</title>
<polygon fill="none" stroke="#000000" points="308.4346,-522 213.5654,-522 213.5654,-486 308.4346,-486 308.4346,-522"/>
<text text-anchor="middle" x="261" y="-499.8" font-family="Times,serif" font-size="14.00" fill="#000000">Enter solution</text>
</g>
<!-- Toolchain panic -->
<g id="node5" class="node">
<title>Toolchain panic</title>
<polygon fill="none" stroke="#000000" points="125.5994,-287 20.4006,-287 20.4006,-251 125.5994,-251 125.5994,-287"/>
<text text-anchor="middle" x="73" y="-264.8" font-family="Times,serif" font-size="14.00" fill="#000000">Toolchain panic</text>
</g>
<!-- Undistributed library -->
<g id="node6" class="node">
<title>Undistributed library</title>
<polygon fill="none" stroke="#000000" points="307.8107,-163 174.1893,-163 174.1893,-127 307.8107,-127 307.8107,-163"/>
<text text-anchor="middle" x="241" y="-140.8" font-family="Times,serif" font-size="14.00" fill="#000000">Undistributed library</text>
</g>
<!-- Shows problem? -->
<g id="node7" class="node">
<title>Shows problem?</title>
<polygon fill="none" stroke="#000000" points="158,-646 59.9797,-628 158,-610 256.0203,-628 158,-646"/>
<text text-anchor="middle" x="158" y="-623.8" font-family="Times,serif" font-size="14.00" fill="#000000">Shows problem?</text>
</g>
<!-- Shows problem?&#45;&gt;Parse traceback for inner line -->
<g id="edge2" class="edge">
<title>Shows problem?&#45;&gt;Parse traceback for inner line</title>
<path fill="none" stroke="#000000" d="M150.987,-611.2768C142.4105,-590.825 127.7732,-555.9207 117.531,-531.4969"/>
<polygon fill="#000000" stroke="#000000" points="120.6702,-529.9322 113.5752,-522.0638 114.2148,-532.6393 120.6702,-529.9322"/>
<text text-anchor="middle" x="142.5552" y="-561.8" font-family="Times,serif" font-size="14.00" fill="#000000">No</text>
</g>
<!-- Shows problem?&#45;&gt;Enter solution -->
<g id="edge1" class="edge">
<title>Shows problem?&#45;&gt;Enter solution</title>
<path fill="none" stroke="#000000" d="M171.045,-612.2953C188.1644,-591.6855 218.4553,-555.2189 239.1148,-530.3473"/>
<polygon fill="#000000" stroke="#000000" points="242.0215,-532.3255 245.7188,-522.3967 236.6368,-527.8528 242.0215,-532.3255"/>
<text text-anchor="middle" x="224.189" y="-561.8" font-family="Times,serif" font-size="14.00" fill="#000000">Yes</text>
</g>
<!-- From toolchain?&#45;&gt;Toolchain panic -->
<g id="edge4" class="edge">
<title>From toolchain?&#45;&gt;Toolchain panic</title>
<path fill="none" stroke="#000000" d="M107.522,-376.0183C100.9694,-355.7051 89.9044,-321.4036 82.0695,-297.1156"/>
<polygon fill="#000000" stroke="#000000" points="85.3332,-295.832 78.9321,-287.3894 78.6712,-297.9811 85.3332,-295.832"/>
<text text-anchor="middle" x="104.189" y="-326.8" font-family="Times,serif" font-size="14.00" fill="#000000">Yes</text>
</g>
<!-- ImportError? -->
<g id="node9" class="node">
<title>ImportError?</title>
<polygon fill="none" stroke="#000000" points="224,-287 143.9591,-269 224,-251 304.0409,-269 224,-287"/>
<text text-anchor="middle" x="224" y="-264.8" font-family="Times,serif" font-size="14.00" fill="#000000">ImportError?</text>
</g>
<!-- From toolchain?&#45;&gt;ImportError? -->
<g id="edge5" class="edge">
<title>From toolchain?&#45;&gt;ImportError?</title>
<path fill="none" stroke="#000000" d="M126.8338,-377.546C146.132,-355.9877 181.2691,-316.7354 203.5828,-291.8084"/>
<polygon fill="#000000" stroke="#000000" points="206.2786,-294.0445 210.3406,-284.2592 201.063,-289.3757 206.2786,-294.0445"/>
<text text-anchor="middle" x="182.5552" y="-326.8" font-family="Times,serif" font-size="14.00" fill="#000000">No</text>
</g>
<!-- ImportError?&#45;&gt;Code vs. data -->
<g id="edge7" class="edge">
<title>ImportError?&#45;&gt;Code vs. data</title>
<path fill="none" stroke="#000000" d="M210.0214,-253.7952C191.0295,-233.1373 156.8034,-195.909 133.7443,-170.8271"/>
<polygon fill="#000000" stroke="#000000" points="136.028,-168.1397 126.6834,-163.1468 130.8748,-172.8774 136.028,-168.1397"/>
<text text-anchor="middle" x="180.5552" y="-202.8" font-family="Times,serif" font-size="14.00" fill="#000000">No</text>
</g>
<!-- ImportError?&#45;&gt;Undistributed library -->
<g id="edge6" class="edge">
<title>ImportError?&#45;&gt;Undistributed library</title>
<path fill="none" stroke="#000000" d="M226.3996,-251.4968C229.1901,-231.1431 233.8344,-197.267 237.1352,-173.1901"/>
<polygon fill="#000000" stroke="#000000" points="240.6112,-173.6034 238.502,-163.2206 233.6761,-172.6525 240.6112,-173.6034"/>
<text text-anchor="middle" x="243.189" y="-202.8" font-family="Times,serif" font-size="14.00" fill="#000000">Yes</text>
</g>
</g>
</svg>
