<?xml version="1.0" encoding="UTF-8" standalone="no"?>
<!DOCTYPE svg PUBLIC "-//W3C//DTD SVG 1.1//EN"
 "http://www.w3.org/Graphics/SVG/1.1/DTD/svg11.dtd">
<!-- Generated by graphviz version 2.40.1 (20161225.0304)
 -->
<!-- Title: %3 Pages: 1 -->
<svg width="536pt" height="692pt"
 viewBox="0.00 0.00 536.00 692.00" xmlns="http://www.w3.org/2000/svg" xmlns:xlink="http://www.w3.org/1999/xlink">
<g id="graph0" class="graph" transform="scale(1 1) rotate(0) translate(4 688)">
<title>%3</title>
<polygon fill="#ffffff" stroke="transparent" points="-4,4 -4,-688 532,-688 532,4 -4,4"/>
<g id="clust1" class="cluster">
<title>cluster_unexpected</title>
<polygon fill="none" stroke="#000000" points="8,-8 8,-676 520,-676 520,-8 8,-8"/>
<text text-anchor="middle" x="264" y="-660.8" font-family="Times,serif" font-size="14.00" fill="#000000">Result violates prior belief</text>
</g>
<!-- Check arbitrary sample -->
<g id="node1" class="node">
<title>Check arbitrary sample</title>
<path fill="none" stroke="#000000" d="M451.1148,-646C451.1148,-646 328.8852,-646 328.8852,-646 322.8852,-646 316.8852,-640 316.8852,-634 316.8852,-634 316.8852,-622 316.8852,-622 316.8852,-616 322.8852,-610 328.8852,-610 328.8852,-610 451.1148,-610 451.1148,-610 457.1148,-610 463.1148,-616 463.1148,-622 463.1148,-622 463.1148,-634 463.1148,-634 463.1148,-640 457.1148,-646 451.1148,-646"/>
<text text-anchor="middle" x="390" y="-623.8" font-family="Times,serif" font-size="14.00" fill="#000000">Check arbitrary sample</text>
</g>
<!-- Problem identified? -->
<g id="node6" class="node">
<title>Problem identified?</title>
<polygon fill="none" stroke="#000000" points="390,-535 277.314,-517 390,-499 502.686,-517 390,-535"/>
<text text-anchor="middle" x="390" y="-512.8" font-family="Times,serif" font-size="14.00" fill="#000000">Problem identified?</text>
</g>
<!-- Check arbitrary sample&#45;&gt;Problem identified? -->
<g id="edge1" class="edge">
<title>Check arbitrary sample&#45;&gt;Problem identified?</title>
<path fill="none" stroke="#000000" d="M390,-609.6706C390,-592.2373 390,-565.7482 390,-545.5489"/>
<polygon fill="#000000" stroke="#000000" points="393.5001,-545.3566 390,-535.3566 386.5001,-545.3567 393.5001,-545.3566"/>
</g>
<!-- [Run basic statistics on data] -->
<g id="node2" class="node">
<title>[Run basic statistics on data]</title>
<path fill="none" stroke="#000000" d="M439.4658,-411C439.4658,-411 286.5342,-411 286.5342,-411 280.5342,-411 274.5342,-405 274.5342,-399 274.5342,-399 274.5342,-387 274.5342,-387 274.5342,-381 280.5342,-375 286.5342,-375 286.5342,-375 439.4658,-375 439.4658,-375 445.4658,-375 451.4658,-381 451.4658,-387 451.4658,-387 451.4658,-399 451.4658,-399 451.4658,-405 445.4658,-411 439.4658,-411"/>
<text text-anchor="middle" x="363" y="-388.8" font-family="Times,serif" font-size="14.00" fill="#000000">[Run basic statistics on data]</text>
</g>
<!-- Problem with collection? -->
<g id="node7" class="node">
<title>Problem with collection?</title>
<polygon fill="none" stroke="#000000" points="297,-300 156.9513,-282 297,-264 437.0487,-282 297,-300"/>
<text text-anchor="middle" x="297" y="-277.8" font-family="Times,serif" font-size="14.00" fill="#000000">Problem with collection?</text>
</g>
<!-- [Run basic statistics on data]&#45;&gt;Problem with collection? -->
<g id="edge4" class="edge">
<title>[Run basic statistics on data]&#45;&gt;Problem with collection?</title>
<path fill="none" stroke="#000000" d="M352.1014,-374.6706C341.2428,-356.4084 324.4755,-328.2088 312.2882,-307.7121"/>
<polygon fill="#000000" stroke="#000000" points="315.1678,-305.7066 307.0487,-298.9 309.1511,-309.2842 315.1678,-305.7066"/>
</g>
<!-- Recollect -->
<g id="node3" class="node">
<title>Recollect</title>
<polygon fill="none" stroke="#000000" points="84.3624,-176 15.6376,-176 15.6376,-140 84.3624,-140 84.3624,-176"/>
<text text-anchor="middle" x="50" y="-153.8" font-family="Times,serif" font-size="14.00" fill="#000000">Recollect</text>
</g>
<!-- Reportable result! -->
<g id="node4" class="node">
<title>Reportable result!</title>
<polygon fill="none" stroke="#000000" points="355.1869,-52 238.8131,-52 238.8131,-16 355.1869,-16 355.1869,-52"/>
<text text-anchor="middle" x="297" y="-29.8" font-family="Times,serif" font-size="14.00" fill="#000000">Reportable result!</text>
</g>
<!-- Fix -->
<g id="node5" class="node">
<title>Fix</title>
<polygon fill="none" stroke="#000000" points="475,-52 421,-52 421,-16 475,-16 475,-52"/>
<text text-anchor="middle" x="448" y="-29.8" font-family="Times,serif" font-size="14.00" fill="#000000">Fix</text>
</g>
<!-- Problem identified?&#45;&gt;[Run basic statistics on data] -->
<g id="edge3" class="edge">
<title>Problem identified?&#45;&gt;[Run basic statistics on data]</title>
<path fill="none" stroke="#000000" d="M386.1888,-499.4968C381.757,-479.1431 374.3807,-445.267 369.1382,-421.1901"/>
<polygon fill="#000000" stroke="#000000" points="372.5149,-420.247 366.9674,-411.2206 365.6752,-421.7364 372.5149,-420.247"/>
<text text-anchor="middle" x="385.5552" y="-450.8" font-family="Times,serif" font-size="14.00" fill="#000000">No</text>
</g>
<!-- Problem identified?&#45;&gt;Fix -->
<g id="edge2" class="edge">
<title>Problem identified?&#45;&gt;Fix</title>
<path fill="none" stroke="#000000" d="M438.6102,-506.7063C464.8813,-497.9835 492,-482.3545 492,-455 492,-455 492,-455 492,-318.5 492,-239.0659 519.2502,-217.3092 501,-140 494.2056,-111.2186 478.3338,-81.3421 465.7193,-60.6727"/>
<polygon fill="#000000" stroke="#000000" points="468.6467,-58.7528 460.3731,-52.1348 462.7139,-62.4678 468.6467,-58.7528"/>
<text text-anchor="middle" x="506.189" y="-277.8" font-family="Times,serif" font-size="14.00" fill="#000000">Yes</text>
</g>
<!-- Problem with collection?&#45;&gt;Recollect -->
<g id="edge5" class="edge">
<title>Problem with collection?&#45;&gt;Recollect</title>
<path fill="none" stroke="#000000" d="M268.1826,-267.5329C225.174,-245.9416 143.8787,-205.1294 93.5814,-179.8789"/>
<polygon fill="#000000" stroke="#000000" points="95.0741,-176.712 84.5667,-175.3533 91.9334,-182.968 95.0741,-176.712"/>
<text text-anchor="middle" x="195.189" y="-215.8" font-family="Times,serif" font-size="14.00" fill="#000000">Yes</text>
</g>
<!-- Is processing state machine broken? -->
<g id="node8" class="node">
<title>Is processing state machine broken?</title>
<polygon fill="none" stroke="#000000" points="297,-176 102.238,-158 297,-140 491.762,-158 297,-176"/>
<text text-anchor="middle" x="297" y="-153.8" font-family="Times,serif" font-size="14.00" fill="#000000">Is processing state machine broken?</text>
</g>
<!-- Problem with collection?&#45;&gt;Is processing state machine broken? -->
<g id="edge6" class="edge">
<title>Problem with collection?&#45;&gt;Is processing state machine broken?</title>
<path fill="none" stroke="#000000" d="M297,-263.9693C297,-243.5822 297,-210.1268 297,-186.2614"/>
<polygon fill="#000000" stroke="#000000" points="300.5001,-186.0524 297,-176.0524 293.5001,-186.0525 300.5001,-186.0524"/>
<text text-anchor="middle" x="305.5552" y="-215.8" font-family="Times,serif" font-size="14.00" fill="#000000">No</text>
</g>
<!-- Is processing state machine broken?&#45;&gt;Reportable result! -->
<g id="edge8" class="edge">
<title>Is processing state machine broken?&#45;&gt;Reportable result!</title>
<path fill="none" stroke="#000000" d="M297,-139.9693C297,-119.5822 297,-86.1268 297,-62.2614"/>
<polygon fill="#000000" stroke="#000000" points="300.5001,-62.0524 297,-52.0524 293.5001,-62.0525 300.5001,-62.0524"/>
<text text-anchor="middle" x="305.5552" y="-91.8" font-family="Times,serif" font-size="14.00" fill="#000000">No</text>
</g>
<!-- Is processing state machine broken?&#45;&gt;Fix -->
<g id="edge7" class="edge">
<title>Is processing state machine broken?&#45;&gt;Fix</title>
<path fill="none" stroke="#000000" d="M316.7406,-141.7892C342.462,-120.667 387.6913,-83.525 417.7527,-58.8388"/>
<polygon fill="#000000" stroke="#000000" points="420.2936,-61.2812 425.8006,-52.23 415.8512,-55.8715 420.2936,-61.2812"/>
<text text-anchor="middle" x="390.189" y="-91.8" font-family="Times,serif" font-size="14.00" fill="#000000">Yes</text>
</g>
</g>
</svg>
